<svg width="50" height="50" viewBox="0 0 50 50" fill="none" xmlns="http://www.w3.org/2000/svg">
<path fill-rule="evenodd" clip-rule="evenodd" d="M50 25C50 38.8071 38.8071 50 25 50C11.1929 50 0 38.8071 0 25C0 11.1929 11.1929 0 25 0C38.8071 0 50 11.1929 50 25ZM47 25C47 37.1503 37.1503 47 25 47C12.8497 47 3 37.1503 3 25C3 12.8497 12.8497 3 25 3C37.1503 3 47 12.8497 47 25Z" fill="white"/>
<path d="M36 15L10 24L19 27L36 15Z" fill="white"/>
<path d="M36 15L19 27L28 36L36 15Z" fill="white"/>
<path d="M36 15L10 24L19 27M36 15L19 27M36 15L28 36L19 27" stroke="white" stroke-width="1.5" stroke-linecap="round" stroke-linejoin="round"/>
</svg>
