<svg width="50" height="50" viewBox="0 0 50 50" fill="none" xmlns="http://www.w3.org/2000/svg">
<g clip-path="url(#clip0_51_68)">
<path d="M48.0354 15.2699C46.7764 12.2927 44.9742 9.61909 42.6788 7.32339C40.3833 5.02764 37.7099 3.22505 34.7329 1.96567C31.6501 0.661523 28.376 0.000195313 25 0C21.6258 0 18.3518 0.661133 15.2691 1.96499C12.2921 3.22412 9.61865 5.02647 7.32305 7.32192C5.02744 9.61738 3.22495 12.2907 1.96563 15.2676C0.661523 18.3503 0.000195356 21.6243 4.32714e-08 24.9985C-0.000195269 28.373 0.660791 31.6472 1.96455 34.7302C3.22358 37.7074 5.02588 40.381 7.32134 42.6766C9.6168 44.9724 12.2902 46.775 15.2672 48.0344C18.35 49.3385 21.6242 49.9999 24.9998 50C28.374 50 31.6483 49.3389 34.7311 48.0351C37.7081 46.7759 40.3815 44.9736 42.6771 42.6782C44.9726 40.3828 46.7751 37.7094 48.0345 34.7325C49.3386 31.6498 49.9999 28.3757 50 25.0015C50.0002 21.627 49.3392 18.3528 48.0354 15.2699ZM24.8477 46.9996L25 47C18.944 46.9997 13.782 44.7825 9.5 40.5C5.21807 36.2175 2.99966 31.0545 3 24.9985C3.00073 12.4978 12.4979 3 25 3C31.056 3.00034 36.2181 5.21753 40.5 9.5C44.782 13.7825 47.0003 18.9456 47 25.0015C46.9993 37.5023 37.3484 46.9996 24.8477 46.9996Z" fill="white"/>
<path d="M7.54414 19.4985C7.92011 20.4799 8.38354 21.4262 8.86186 22.3609C9.99844 24.5816 11.1689 26.7395 12.7382 28.6913C14.3241 30.6638 16.1964 32.5753 18.402 33.8513C19.0155 34.2062 19.6603 34.5056 20.3321 34.7332C22.9238 35.611 25.7664 35.5274 26.6442 34.9422C27.5221 34.3569 26.477 30.511 27.2713 30.0512C28.0656 29.5914 29.4869 30.5947 30.5319 31.5144C31.577 32.434 32.3712 33.2282 32.9565 33.8553C33.323 34.248 33.581 34.7166 34.0588 34.9967C34.8491 35.4599 35.9022 35.4085 36.7838 35.411C37.2752 35.4124 37.7668 35.4141 38.2583 35.4079C38.5905 35.4038 38.9228 35.4146 39.2547 35.3985C39.8002 35.372 40.5135 35.1567 40.4726 34.4743C40.4629 34.313 40.4271 34.12 40.363 33.9711C40.2252 33.651 40.0311 33.3189 39.8225 33.0401C38.7357 31.5875 38.0146 30.8455 37.4712 30.2602C36.9277 29.675 34.6913 27.5639 34.545 27.1459C34.3987 26.7278 34.3516 26.5424 34.767 25.978C35.1825 25.4136 36.0917 23.9897 36.8024 22.9656C37.2481 22.3233 37.653 21.6517 38.053 20.9803C38.5246 20.1888 38.9682 19.3781 39.3462 18.5375C39.5152 18.1616 39.6687 17.8192 39.564 17.398C39.4938 17.1158 39.3351 16.8679 39.0396 16.7983C38.8783 16.7603 38.7022 16.7564 38.5372 16.7564C37.9206 16.7564 36.3111 16.7564 36.3111 16.7564C36.0202 16.7564 35.7292 16.7522 35.4383 16.7527C35.14 16.7533 34.8392 16.7509 34.5418 16.7764C34.1187 16.8126 33.8593 17.139 33.6465 17.468C33.3861 17.8706 33.1491 18.2894 32.8965 18.6971C32.7238 18.9756 32.5548 19.2564 32.3888 19.539C32.1294 19.9804 31.8623 20.4171 31.5951 20.8538C31.4842 21.035 31.3729 21.2159 31.2636 21.398C30.95 21.9205 28.2329 25.4946 27.6895 25.641C27.146 25.7874 26.9579 25.7456 26.9579 24.6377C26.9579 23.53 26.9579 17.2387 26.9579 17.2387C26.9579 17.2387 26.9162 16.7536 26.4563 16.7536C25.9965 16.7536 23.8636 16.7536 23.8636 16.7536H19.4647C19.4647 16.7536 18.4301 16.7579 18.7959 17.688C19.1617 18.6182 20.2434 18.9003 20.2434 20.4522C20.2434 22.0041 20.2434 26.5345 20.2434 26.5345C20.2434 26.5345 20.0605 27.8983 18.8795 26.7696C17.9489 25.8802 17.1822 24.8287 16.5047 23.7383C15.8003 22.6048 15.2328 21.4272 14.7273 20.1933C14.5828 19.8404 14.4396 19.487 14.2911 19.1357C14.1361 18.7691 13.9826 18.4018 13.8339 18.0326C13.6613 17.6037 13.4767 17.0431 13.0112 16.8456C12.7772 16.7463 12.5185 16.7512 12.269 16.7513C11.3441 16.7515 10.4192 16.7541 9.49428 16.7523C9.2229 16.7519 8.95151 16.7516 8.68012 16.7522C8.03935 16.7538 7.24238 16.7349 7.09038 17.5354C7.00278 17.9964 7.1769 18.4886 7.32265 18.9205C7.38872 19.1168 7.47021 19.3055 7.54414 19.4985Z" fill="white"/>
</g>
<defs>
<clipPath id="clip0_51_68">
<rect width="50" height="50" fill="white"/>
</clipPath>
</defs>
</svg>
