<svg width="20" height="20" viewBox="0 0 20 20" fill="none" xmlns="http://www.w3.org/2000/svg">
<path d="M6.56934 6.02922V3.86334C6.73256 2.5607 7.57446 1.21972 9.56032 0.769226H10.5401C12.4479 1.27812 13.1489 2.19126 13.5311 3.81177V7.67941H9.56032V6.08079H11.8809V4.01804C11.7056 3.16545 11.388 2.82334 10.4886 2.41942H9.66346C8.66041 2.86182 8.39242 3.23171 8.21954 4.01804V7.67941H3.93935L2.547 16.3429C2.72452 17.1589 2.9399 17.4452 3.57837 17.5806H16.6768C17.2992 17.3194 17.5274 17.0741 17.4503 16.2398L16.2127 7.67941H14.8719V6.08079H17.6566L19.1005 16.0335V17.0133C18.5974 18.4509 18.0211 18.8775 16.6768 19.2308H3.57837C2.08072 18.9445 1.50426 18.4406 0.999939 16.8586V15.8788L2.49543 6.02922H6.56934Z" fill="black" stroke="black"/>
<circle cx="7.39443" cy="9.8453" r="0.825097" fill="black"/>
<circle cx="12.6544" cy="9.8453" r="0.825097" fill="black"/>
</svg>
