<svg width="76" height="64" viewBox="0 0 76 64" fill="none" xmlns="http://www.w3.org/2000/svg">
<path fill-rule="evenodd" clip-rule="evenodd" d="M32.84 63.332H30.6519C30.2226 63.0176 30.0098 62.7674 29.7057 62.1221V43.5042C29.5462 42.787 29.4 42.4152 28.8778 41.8911H28.1682C22.9515 47.0549 20.863 52.5238 14.0344 53.3172C11.6795 53.5831 10.3858 53.5478 8.17978 52.7795C3.96848 50.5529 2.33326 48.5202 1.20158 42.9665C1.01094 38.0121 2.20412 34.9114 6.16911 34.0271C8.84636 33.6954 9.81466 35.813 11.4915 39.8075C12.8138 40.8174 13.4765 40.7323 14.5666 39.8075C15.304 37.9646 15.0544 35.9686 14.5666 32.3468C14.281 30.2076 14.0998 28.2257 13.7387 23.2059V16.1485C15.3441 6.93773 17.6306 2.97703 27.7542 1.16005C37.1665 0.374646 42.3728 -0.0319926 46.205 1.83218C49.6874 3.33612 51.291 4.73456 53.6563 8.01577C64.1345 8.60454 66.859 14.1154 68.8546 19.5092C71.5714 19.9745 72.3033 22.0342 72.6394 27.9108C73.203 28.8437 73.4504 28.7375 73.8222 27.9108H74.4727C74.9954 28.117 75.1406 28.2665 75.1823 28.5829V29.1878C74.6885 30.2262 74.3022 30.4638 73.5856 30.8009H72.6394C70.7613 30.423 71.0453 27.1023 69.5643 22.8026L69.032 59.4336C68.7822 61.6728 68.2267 62.3247 66.6665 62.6598L54.5434 63.332C53.8868 63.1075 53.6239 62.8745 53.4198 62.1893L52.9467 50.4943C51.6478 46.8883 49.5167 47.537 48.3931 50.6959C47.2695 53.8549 47.7064 58.0875 47.5061 62.391C47.1991 62.943 47.0921 63.0631 46.5007 63.332C45.9094 63.6008 44.7857 63.4664 44.7857 63.4664L32.84 63.332ZM32.9583 43.3025V59.5008H44.6675L44.7858 53.25C45.5786 47.1574 46.6273 44.6153 51.4683 44.3779C56.1512 44.4897 56.4526 49.5457 56.5541 59.5008L65.9569 59.568C66.3068 59.5608 66.4634 59.4467 66.6665 59.0303L66.7257 26.7681C66.5965 18.0711 62.6173 13.047 55.9036 12.0485C57.887 17.7865 57.63 21.0095 55.0165 26.7681C51.4703 31.726 49.0219 33.8363 43.3073 35.6402C42.5445 35.7414 42.3896 35.8262 41.9472 35.6402C41.5047 35.4543 40.8173 33.9808 42.1246 33.2878C47.3702 31.0936 49.3814 29.5266 51.5865 26.2304C53.8724 22.5168 54.242 19.9686 51.5865 13.7288C49.3884 9.30429 47.6214 7.14607 39.8774 6.06657H29.5283C22.6293 6.65231 20.7158 8.587 18.7062 13.1911C17.1719 20.3849 18.3919 24.7504 18.7062 32.8173V37.5222C17.7076 43.1565 16.1949 44.6218 11.9646 44.5123C8.74951 44.9268 8.0214 37.8333 5.93256 37.9255C4.5583 38.8017 4.40518 39.9156 4.45413 42.2271C5.77818 47.4932 8.02536 49.4756 13.2656 49.6877C20.9363 49.6039 23.6944 37.1839 29.4101 37.5894C31.8005 38.5074 32.508 39.8487 32.9583 43.3025Z" fill="black" stroke="black"/>
<ellipse cx="27.5769" cy="25.2894" rx="2.42463" ry="2.75573" fill="black"/>
</svg>
